# This file uses centimeters as units for non-parametric coordinates.

v 1.439434 -0.000000 -0.485169
v 1.216426 -0.000000 -0.922847
v 0.869083 -0.000000 -1.270190
v 0.431406 -0.000000 -1.493197
v -0.053763 -0.000000 -1.570040
v -0.538933 -0.000000 -1.493197
v -0.976610 -0.000000 -1.270189
v -1.323953 -0.000000 -0.922846
v -1.546960 -0.000000 -0.485169
v -1.623804 -0.000000 0.000000
v -1.546960 -0.000000 0.485169
v -1.323953 -0.000000 0.922846
v -0.976610 -0.000000 1.270189
v -0.538933 -0.000000 1.493197
v -0.053763 -0.000000 1.570040
v 0.431405 -0.000000 1.493197
v 0.869083 -0.000000 1.270189
v 1.216425 -0.000000 0.922846
v 1.439433 -0.000000 0.485169
v 1.516276 -0.000000 0.000000
v 16.589408 11.929868 -1.207556
v 16.044356 12.308842 -2.982668
v 15.067375 12.970294 -4.465811
v 13.754098 13.849472 -5.511813
v 12.233069 14.860295 -6.018283
v 10.653184 15.903824 -5.935640
v 9.169110 16.877910 -5.271972
v 7.926111 17.687190 -4.092251
v 7.045859 18.252421 -2.511944
v 6.614510 18.518353 -0.685756
v 6.674282 18.458903 1.207558
v 7.219322 18.079940 2.982667
v 8.196298 17.418483 4.465810
v 9.509583 16.539305 5.511814
v 11.030614 15.528482 6.018284
v 12.610484 14.484952 5.935638
v 14.094563 13.510868 5.271971
v 15.337556 12.701594 4.092250
v 16.217826 12.136348 2.511946
v 16.649171 11.870417 0.685758
v -0.053763 -0.000000 0.000000
v 11.631840 15.194390 0.000000
vn 0.538245 -0.714763 -0.446549
vn 0.524338 -0.710885 -0.468734
vn 0.598392 -0.770183 -0.220783
vn 0.602118 -0.775127 -0.191396
vn 0.414137 -0.609981 -0.675584
vn 0.384450 -0.596347 -0.704676
vn 0.205738 -0.444310 -0.871929
vn 0.192810 -0.441654 -0.876223
vn -0.076343 -0.227184 -0.970855
vn -0.034328 -0.261521 -0.964587
vn -0.373352 -0.001967 -0.927688
vn -0.275419 -0.073962 -0.958475
vn -0.620096 0.183448 -0.762776
vn -0.505865 0.101965 -0.856565
vn -0.789794 0.309884 -0.529337
vn -0.701244 0.248627 -0.668163
vn -0.885264 0.380489 -0.267461
vn -0.840522 0.351762 -0.412052
vn -0.913617 0.406563 0.003214
vn -0.909054 0.400491 -0.115013
vn -0.886488 0.390205 0.248758
vn -0.899477 0.391914 0.193246
vn -0.796043 0.322840 0.511947
vn -0.811873 0.327307 0.483458
vn -0.631284 0.201282 0.748976
vn -0.656095 0.210765 0.724650
vn -0.388717 0.022243 0.921089
vn -0.448954 0.053245 0.891967
vn -0.092866 -0.197520 0.975890
vn -0.212786 -0.129553 0.968472
vn 0.193708 -0.414030 0.889414
vn 0.027383 -0.318674 0.947469
vn 0.410392 -0.584445 0.700002
vn 0.247261 -0.494332 0.833366
vn 0.541517 -0.696298 0.471093
vn 0.426481 -0.638775 0.640375
vn 0.604722 -0.758719 0.242192
vn 0.550441 -0.738520 0.389361
vn 0.619630 -0.784665 0.018975
vn 0.610942 -0.784847 0.103755
vn 0.000000 -1.000000 0.000001
vn 0.000000 -1.000000 0.000000
vn 0.000000 -1.000000 -0.000000
vn 0.000000 -1.000000 0.000000
vn 0.000000 -1.000000 -0.000000
vn 0.000000 -1.000000 0.000000
vn 0.000000 -1.000000 -0.000001
vn 0.000000 -1.000000 -0.000001
vn 0.000000 -1.000000 0.000000
vn 0.000000 -1.000000 0.000000
vn 0.000000 -1.000000 0.000000
vn 0.000000 -1.000000 0.000000
vn 0.000000 -1.000000 -0.000001
vn 0.000000 -1.000000 -0.000001
vn 0.000000 -1.000000 0.000000
vn 0.000000 -1.000000 0.000000
vn 0.000000 -1.000000 -0.000001
vn 0.000000 -1.000000 -0.000001
vn 0.000000 -1.000000 0.000000
vn 0.000000 -1.000000 0.000000
vn 0.000000 -1.000000 0.000000
vn 0.551434 0.834172 0.008780
vn 0.551435 0.834172 0.008775
vn 0.551437 0.834171 0.008782
vn 0.551439 0.834169 0.008781
vn 0.551439 0.834169 0.008782
vn 0.551437 0.834170 0.008781
vn 0.551439 0.834169 0.008781
vn 0.551439 0.834169 0.008781
vn 0.551434 0.834172 0.008787
vn 0.551433 0.834173 0.008785
vn 0.551435 0.834171 0.008780
vn 0.551434 0.834172 0.008778
vn 0.551435 0.834171 0.008777
vn 0.551439 0.834169 0.008782
vn 0.551437 0.834170 0.008782
vn 0.551439 0.834169 0.008782
vn 0.551440 0.834168 0.008782
vn 0.551438 0.834170 0.008783
vn 0.551435 0.834172 0.008787
vn 0.551434 0.834172 0.008784
vn 0.551436 0.834171 0.008782
f 2//1 22//2 1//3
f 1//3 22//2 21//4
f 3//5 23//6 2//1
f 2//1 23//6 22//2
f 4//7 24//8 3//5
f 3//5 24//8 23//6
f 5//9 25//10 4//7
f 4//7 25//10 24//8
f 6//11 26//12 5//9
f 5//9 26//12 25//10
f 7//13 27//14 6//11
f 6//11 27//14 26//12
f 8//15 28//16 7//13
f 7//13 28//16 27//14
f 9//17 29//18 8//15
f 8//15 29//18 28//16
f 10//19 30//20 9//17
f 9//17 30//20 29//18
f 10//19 11//21 30//20
f 30//20 11//21 31//22
f 11//21 12//23 31//22
f 31//22 12//23 32//24
f 12//23 13//25 32//24
f 32//24 13//25 33//26
f 13//25 14//27 33//26
f 33//26 14//27 34//28
f 14//27 15//29 34//28
f 34//28 15//29 35//30
f 15//29 16//31 35//30
f 35//30 16//31 36//32
f 16//31 17//33 36//32
f 36//32 17//33 37//34
f 17//33 18//35 37//34
f 37//34 18//35 38//36
f 18//35 19//37 38//36
f 38//36 19//37 39//38
f 19//37 20//39 39//38
f 39//38 20//39 40//40
f 1//3 21//4 20//39
f 20//39 21//4 40//40
f 2//41 1//42 41//43
f 3//44 2//41 41//43
f 4//45 3//44 41//43
f 5//46 4//45 41//43
f 6//47 5//46 41//43
f 7//48 6//47 41//43
f 8//49 7//48 41//43
f 9//50 8//49 41//43
f 10//51 9//50 41//43
f 11//52 10//51 41//43
f 12//53 11//52 41//43
f 13//54 12//53 41//43
f 14//55 13//54 41//43
f 15//56 14//55 41//43
f 16//57 15//56 41//43
f 17//58 16//57 41//43
f 18//59 17//58 41//43
f 19//60 18//59 41//43
f 20//61 19//60 41//43
f 1//42 20//61 41//43
f 21//62 22//63 42//64
f 22//63 23//65 42//64
f 23//65 24//66 42//64
f 24//66 25//67 42//64
f 25//67 26//68 42//64
f 26//68 27//69 42//64
f 27//69 28//70 42//64
f 28//70 29//71 42//64
f 29//71 30//72 42//64
f 30//72 31//73 42//64
f 31//73 32//74 42//64
f 32//74 33//75 42//64
f 33//75 34//76 42//64
f 34//76 35//77 42//64
f 35//77 36//78 42//64
f 36//78 37//79 42//64
f 37//79 38//80 42//64
f 38//80 39//81 42//64
f 39//81 40//82 42//64
f 40//82 21//62 42//64
v 1.439434 -0.000000 -0.485169
v 1.216426 -0.000000 -0.922847
v 0.869083 -0.000000 -1.270190
v 0.431406 -0.000000 -1.493197
v -0.053763 -0.000000 -1.570040
v -0.538933 -0.000000 -1.493197
v -0.976610 -0.000000 -1.270189
v -1.323953 -0.000000 -0.922846
v -1.546960 -0.000000 -0.485169
v -1.623804 -0.000000 0.000000
v -1.546960 -0.000000 0.485169
v -1.323953 -0.000000 0.922846
v -0.976610 -0.000000 1.270189
v -0.538933 -0.000000 1.493197
v -0.053763 -0.000000 1.570040
v 0.431405 -0.000000 1.493197
v 0.869083 -0.000000 1.270189
v 1.216425 -0.000000 0.922846
v 1.439433 -0.000000 0.485169
v 1.516276 -0.000000 0.000000
v 16.589408 11.929868 -1.207556
v 16.044356 12.308842 -2.982668
v 15.067375 12.970294 -4.465811
v 13.754098 13.849472 -5.511813
v 12.233069 14.860295 -6.018283
v 10.653184 15.903824 -5.935640
v 9.169110 16.877910 -5.271972
v 7.926111 17.687190 -4.092251
v 7.045859 18.252421 -2.511944
v 6.614510 18.518353 -0.685756
v 6.674282 18.458903 1.207558
v 7.219322 18.079940 2.982667
v 8.196298 17.418483 4.465810
v 9.509583 16.539305 5.511814
v 11.030614 15.528482 6.018284
v 12.610484 14.484952 5.935638
v 14.094563 13.510868 5.271971
v 15.337556 12.701594 4.092250
v 16.217826 12.136348 2.511946
v 16.649171 11.870417 0.685758
v -0.053763 -0.000000 0.000000
v 11.631840 15.194390 0.000000
vn 0.538245 -0.714763 -0.446549
vn 0.524338 -0.710885 -0.468734
vn 0.598392 -0.770183 -0.220783
vn 0.602118 -0.775127 -0.191396
vn 0.414137 -0.609981 -0.675584
vn 0.384450 -0.596347 -0.704676
vn 0.205738 -0.444310 -0.871929
vn 0.192810 -0.441654 -0.876223
vn -0.076343 -0.227184 -0.970855
vn -0.034328 -0.261521 -0.964587
vn -0.373352 -0.001967 -0.927688
vn -0.275419 -0.073962 -0.958475
vn -0.620096 0.183448 -0.762776
vn -0.505865 0.101965 -0.856565
vn -0.789794 0.309884 -0.529337
vn -0.701244 0.248627 -0.668163
vn -0.885264 0.380489 -0.267461
vn -0.840522 0.351762 -0.412052
vn -0.913617 0.406563 0.003214
vn -0.909054 0.400491 -0.115013
vn -0.886488 0.390205 0.248758
vn -0.899477 0.391914 0.193246
vn -0.796043 0.322840 0.511947
vn -0.811873 0.327307 0.483458
vn -0.631284 0.201282 0.748976
vn -0.656095 0.210765 0.724650
vn -0.388717 0.022243 0.921089
vn -0.448954 0.053245 0.891967
vn -0.092866 -0.197520 0.975890
vn -0.212786 -0.129553 0.968472
vn 0.193708 -0.414030 0.889414
vn 0.027383 -0.318674 0.947469
vn 0.410392 -0.584445 0.700002
vn 0.247261 -0.494332 0.833366
vn 0.541517 -0.696298 0.471093
vn 0.426481 -0.638775 0.640375
vn 0.604722 -0.758719 0.242192
vn 0.550441 -0.738520 0.389361
vn 0.619630 -0.784665 0.018975
vn 0.610942 -0.784847 0.103755
vn 0.000000 -1.000000 0.000001
vn 0.000000 -1.000000 0.000000
vn 0.000000 -1.000000 -0.000000
vn 0.000000 -1.000000 0.000000
vn 0.000000 -1.000000 -0.000000
vn 0.000000 -1.000000 0.000000
vn 0.000000 -1.000000 -0.000001
vn 0.000000 -1.000000 -0.000001
vn 0.000000 -1.000000 0.000000
vn 0.000000 -1.000000 0.000000
vn 0.000000 -1.000000 0.000000
vn 0.000000 -1.000000 0.000000
vn 0.000000 -1.000000 -0.000001
vn 0.000000 -1.000000 -0.000001
vn 0.000000 -1.000000 0.000000
vn 0.000000 -1.000000 0.000000
vn 0.000000 -1.000000 -0.000001
vn 0.000000 -1.000000 -0.000001
vn 0.000000 -1.000000 0.000000
vn 0.000000 -1.000000 0.000000
vn 0.000000 -1.000000 0.000000
vn 0.551434 0.834172 0.008780
vn 0.551435 0.834172 0.008775
vn 0.551437 0.834171 0.008782
vn 0.551439 0.834169 0.008781
vn 0.551439 0.834169 0.008782
vn 0.551437 0.834170 0.008781
vn 0.551439 0.834169 0.008781
vn 0.551439 0.834169 0.008781
vn 0.551434 0.834172 0.008787
vn 0.551433 0.834173 0.008785
vn 0.551435 0.834171 0.008780
vn 0.551434 0.834172 0.008778
vn 0.551435 0.834171 0.008777
vn 0.551439 0.834169 0.008782
vn 0.551437 0.834170 0.008782
vn 0.551439 0.834169 0.008782
vn 0.551440 0.834168 0.008782
vn 0.551438 0.834170 0.008783
vn 0.551435 0.834172 0.008787
vn 0.551434 0.834172 0.008784
vn 0.551436 0.834171 0.008782
f 44//83 64//84 43//85
f 43//85 64//84 63//86
f 45//87 65//88 44//83
f 44//83 65//88 64//84
f 46//89 66//90 45//87
f 45//87 66//90 65//88
f 47//91 67//92 46//89
f 46//89 67//92 66//90
f 48//93 68//94 47//91
f 47//91 68//94 67//92
f 49//95 69//96 48//93
f 48//93 69//96 68//94
f 50//97 70//98 49//95
f 49//95 70//98 69//96
f 51//99 71//100 50//97
f 50//97 71//100 70//98
f 52//101 72//102 51//99
f 51//99 72//102 71//100
f 52//101 53//103 72//102
f 72//102 53//103 73//104
f 53//103 54//105 73//104
f 73//104 54//105 74//106
f 54//105 55//107 74//106
f 74//106 55//107 75//108
f 55//107 56//109 75//108
f 75//108 56//109 76//110
f 56//109 57//111 76//110
f 76//110 57//111 77//112
f 57//111 58//113 77//112
f 77//112 58//113 78//114
f 58//113 59//115 78//114
f 78//114 59//115 79//116
f 59//115 60//117 79//116
f 79//116 60//117 80//118
f 60//117 61//119 80//118
f 80//118 61//119 81//120
f 61//119 62//121 81//120
f 81//120 62//121 82//122
f 43//85 63//86 62//121
f 62//121 63//86 82//122
f 44//123 43//124 83//125
f 45//126 44//123 83//125
f 46//127 45//126 83//125
f 47//128 46//127 83//125
f 48//129 47//128 83//125
f 49//130 48//129 83//125
f 50//131 49//130 83//125
f 51//132 50//131 83//125
f 52//133 51//132 83//125
f 53//134 52//133 83//125
f 54//135 53//134 83//125
f 55//136 54//135 83//125
f 56//137 55//136 83//125
f 57//138 56//137 83//125
f 58//139 57//138 83//125
f 59//140 58//139 83//125
f 60//141 59//140 83//125
f 61//142 60//141 83//125
f 62//143 61//142 83//125
f 43//124 62//143 83//125
f 63//144 64//145 84//146
f 64//145 65//147 84//146
f 65//147 66//148 84//146
f 66//148 67//149 84//146
f 67//149 68//150 84//146
f 68//150 69//151 84//146
f 69//151 70//152 84//146
f 70//152 71//153 84//146
f 71//153 72//154 84//146
f 72//154 73//155 84//146
f 73//155 74//156 84//146
f 74//156 75//157 84//146
f 75//157 76//158 84//146
f 76//158 77//159 84//146
f 77//159 78//160 84//146
f 78//160 79//161 84//146
f 79//161 80//162 84//146
f 80//162 81//163 84//146
f 81//163 82//164 84//146
f 82//164 63//144 84//146
